<?xml version="1.0" encoding="utf-8"?>
<!-- Generator: Adobe Illustrator 23.0.0, SVG Export Plug-In . SVG Version: 6.00 Build 0)  -->
<svg version="1.1" id="Layer_1" xmlns="http://www.w3.org/2000/svg" xmlns:xlink="http://www.w3.org/1999/xlink" x="0px" y="0px"
	 viewBox="0 0 378 378" style="enable-background:new 0 0 378 378;" xml:space="preserve">
<style type="text/css">
	.st0{fill:url(#SVGID_1_);}
	.st1{fill:#FFFFFF;}
	.st2{fill:#F79816;}
</style>
<g>
	<linearGradient id="SVGID_1_" gradientUnits="userSpaceOnUse" x1="189" y1="17.9048" x2="189" y2="377.0317">
		<stop  offset="0" style="stop-color:#323232"/>
		<stop  offset="0.9955" style="stop-color:#000000"/>
	</linearGradient>
	<rect class="st0" width="378" height="378"/>
</g>
<g>
	<path class="st1" d="M48.97,91.62c2.58-16.44,9.67-30.62,22.88-40.93c13.54-10.31,29.01-12.57,45.44-11.28
		c10.31,0.97,19.66,3.55,28.04,9.35c14.18,10.31,20.95,24.49,22.56,41.57c0.97,10.96,0.97,21.92,0.97,32.87
		c0,5.16-0.97,6.45-6.45,6.45h-36.1c-5.16,0-6.12-0.97-6.45-6.45c-0.32-7.73-0.32-15.79-0.64-23.53c-0.32-3.55-0.97-6.77-2.26-9.99
		c-1.29-5.48-9.99-7.09-14.18-2.58c-1.93,1.93-3.55,4.51-3.87,7.09c-2.58,20.95,0,40.61,14.18,57.37
		c9.67,11.6,19.01,23.2,28.36,35.13c11.92,15.15,21.59,31.91,25.78,50.92c3.22,15.15,2.58,30.62,1.93,45.76
		c-0.64,13.54-4.83,25.46-12.57,36.42c-4.83,6.77-11.6,11.28-19.34,14.5c-4.19,1.93-8.38,2.58-13.21,3.87
		c-8.06,1.61-32.55,0.32-38.35-1.29c-11.28-2.9-21.59-8.38-28.68-18.37c-6.12-8.7-8.38-19.01-8.38-29.65v-29.65
		c0-4.51,0.97-5.16,5.48-5.16h27.39c8.38,0,15.15,6.77,15.15,15.15v14.5c0,1.93,0.32,4.19,0.97,6.12c1.29,4.19,5.8,7.73,9.99,7.73
		c4.19,0,8.7-3.55,9.35-8.38c2.26-13.54,1.61-26.75-1.29-40.29c-3.22-15.15-13.21-26.43-22.24-38.35
		c-9.99-13.21-20.63-25.78-29.65-39.32c-4.83-7.41-8.38-16.11-10.96-24.49C50.58,139.97,48,124.5,48,123.85
		C48,120.31,48.97,92.59,48.97,91.62z"/>
	<path class="st2" d="M319.04,230.21H216.56c-6.12,0-10.96-4.83-10.96-10.96V51.34c0-6.12,4.83-10.96,10.96-10.96h102.49
		c6.12,0,10.96,4.83,10.96,10.96v167.91C330,225.05,325.17,230.21,319.04,230.21z M319.04,337.21H216.56
		c-6.12,0-10.96-4.83-10.96-10.96V263.4c0-6.12,4.83-10.96,10.96-10.96h102.49c6.12,0,10.96,4.83,10.96,10.96v62.52
		C330,332.05,325.17,337.21,319.04,337.21z"/>
</g>
</svg>
