<svg id="Layer_1" xmlns="http://www.w3.org/2000/svg" viewBox="0 0 490.8 92.9"><style>.st0{fill:#fff}.st1{fill:#f79816}</style><g id="EMzZUO.tif_1_"><path class="st0" d="M11 16.3c.8-5.1 3-9.5 7.1-12.7C22.3.4 27.1-.3 32.2.1c3.2.3 6.1 1.1 8.7 2.9 4.4 3.2 6.5 7.6 7 12.9.3 3.4.3 6.8.3 10.2 0 1.6-.3 2-2 2H35c-1.6 0-1.9-.3-2-2-.1-2.4-.1-4.9-.2-7.3-.1-1.1-.3-2.1-.7-3.1-.4-1.7-3.1-2.2-4.4-.8-.6.6-1.1 1.4-1.2 2.2-.8 6.5 0 12.6 4.4 17.8 3 3.6 5.9 7.2 8.8 10.9 3.7 4.7 6.7 9.9 8 15.8 1 4.7.8 9.5.6 14.2-.2 4.2-1.5 7.9-3.9 11.3-1.5 2.1-3.6 3.5-6 4.5-1.3.6-2.6.8-4.1 1.2-2.5.5-10.1.1-11.9-.4-3.5-.9-6.7-2.6-8.9-5.7-1.9-2.7-2.6-5.9-2.6-9.2v-9.2c0-1.4.3-1.6 1.7-1.6h8.5c2.6 0 4.7 2.1 4.7 4.7v4.5c0 .6.1 1.3.3 1.9.4 1.3 1.8 2.4 3.1 2.4s2.7-1.1 2.9-2.6c.7-4.2.5-8.3-.4-12.5-1-4.7-4.1-8.2-6.9-11.9-3.1-4.1-6.4-8-9.2-12.2-1.5-2.3-2.6-5-3.4-7.6-.7-2.1-1.5-6.9-1.5-7.1 0-1.1.3-9.7.3-10zM293.6 44.1c-.1.6-.3 1.3-.4 1.9-.1 2.3-.2 4.6-.2 6.8v37.6c0 1.4-.4 1.8-1.8 1.8h-11.3c-1.2 0-1.7-.5-1.7-1.6v-1.8V2.6c0-2 .2-2.1 2.1-2.1h17.3c1.3 0 1.8.5 2 1.7l.6 3.6c.8 6 1.6 12 2.4 17.9.6 4.6 1.3 9.1 1.9 13.6.7 4.9 1.3 9.8 2 14.7.1.4.2.7.3 1.1.2 0 .3.1.5.1.3-.8.7-1.5.8-2.3.4-2.3.7-4.7 1-7l2.4-18.3 2.4-16.5c.3-2.2.5-4.4.9-6.5.3-2 .5-2.1 2.5-2.1h16.3c1.8 0 2.1.3 2.1 2.1v87.6c0 1.7-.3 2-2 2H323c-1.8 0-2.2-.4-2.2-2.2V68.3c0-7 .1-13.9.1-20.9 0-.9.1-1.9-.9-3-.2 1-.4 1.6-.4 2.3-.5 4.6-.9 9.2-1.5 13.8-.8 6.9-1.8 13.7-2.7 20.6l-1.2 9.3c-.2 1.3-.5 1.7-1.9 1.8h-10.2c-1.3 0-1.9-.5-2.1-1.7l-1.5-10.2c-1-6.9-1.9-13.8-2.8-20.7-.6-4.5-1.1-9-1.6-13.5l-.3-2.1c0 .1-.1.1-.2.1zM74.1 37.3c.1-.7.4-1.3.4-2 .1-1.4 0-2.8 0-4.2V2.7c0-1.8.3-2.1 2.1-2.1h10.9c1.5 0 1.8.3 1.8 1.8v88.7c-.1.8-.4 1.2-1.3 1.2H76.2c-1 0-1.5-.6-1.7-1.5-.8-4.4-1.6-8.9-2.5-13.3-.7-3.5-1.5-7-2.3-10.5-.5-2.6-1-5.2-1.6-7.7-.4-1.6-.8-3.2-1.5-4.9-.1.7-.2 1.3-.3 2V91.1c-.1.8-.5 1.2-1.3 1.2H53c-1 0-1.5-.5-1.5-1.5v-1.7V2.6c0-1.7.3-2.1 2-2.1h10.6c1.6 0 1.9.3 2.2 1.9.7 3.5 1.5 6.9 2.3 10.4.9 3.9 1.8 7.7 2.6 11.6.8 4 1.6 8.1 2.4 12.1 0 .2.1.5.2.7.1 0 .2.1.3.1zM198.7 58.9c-.4 1.7-.9 3.3-.9 4.9-.1 8.7 0 17.4 0 26V91c-.1.9-.5 1.3-1.5 1.3h-12.8c-1.5 0-1.8-.4-1.8-1.9V3.5c0-3 0-3 3-3H196c1.5 0 1.8.3 1.8 1.7 0 9.7 0 19.4-.1 29v2.7c.2 0 .3.1.5.1.4-.6.8-1.1 1.1-1.8l3.3-10.8 3.6-11.4c.8-2.5 1.6-5.1 2.3-7.7.4-1.5.8-1.9 2.3-1.9H223c1.6 0 1.9.5 1.4 2-1 2.9-2 5.8-2.9 8.8-1.1 3.4-2 6.8-3.1 10.2-1.5 4.6-3.1 9.2-4.6 13.8-.4 1.2-.9 2.5-1.2 3.8-.2.9-.2 2 0 3 1.1 4.6 2.4 9.1 3.5 13.7 1.6 6.5 3.1 13.1 4.6 19.6.7 3.1 1.6 6.1 2.4 9.2.5 2 1.1 3.9 1.5 5.9.4 1.5 0 1.9-1.5 1.9h-13.9c-1 0-1.6-.3-1.9-1.4-.5-2.4-1.2-4.8-1.7-7.2-.8-3.4-1.6-6.8-2.4-10.3-.9-3.8-1.8-7.7-2.7-11.5-.4-1-.4-2.2-1.8-3zM136.1 46.4V3.2c0-2.7 0-2.7 2.6-2.7h11.2c1.7 0 2.1.4 2.1 2v29.8c0 .4.4.9.5 1.3.3-.4.7-.7.8-1.2 1-3 1.9-5.9 2.8-8.9.8-2.6 1.5-5.1 2.3-7.7s1.7-5.2 2.5-7.9l1.5-5.1c.6-2.1 1-2.4 3-2.4h11.8c1.5 0 1.8.3 1.4 1.8-1.1 3.7-2.4 7.4-3.6 11.1-1.3 4.1-2.5 8.3-3.9 12.5-1.1 3.4-2.2 6.8-3.3 10.1-.4 1.2-.9 2.4-1.2 3.6-.1.5-.1 1.1 0 1.7 1 4.1 2.1 8.1 3.1 12.2 1 4 1.8 8.1 2.8 12.1 1.5 6 3.1 12.1 4.6 18.1.6 2.3 1.1 4.7 1.7 7 .2 1.1-.1 1.6-1.2 1.6H163c-.9 0-1.4-.5-1.6-1.4l-4.2-18.3c-.9-4.1-1.9-8.2-2.9-12.4-.1-.3-.4-.6-.6-1-.3.3-.9.5-1 .9-.3 1.3-.7 2.6-.7 3.9-.1 8.8 0 17.6 0 26.4 0 1.5-.4 1.9-1.9 1.9h-12.2c-1.2 0-1.7-.5-1.7-1.6v-1.2c-.1-14.3-.1-28.6-.1-43zM377.2 46.4V2.9c0-2.1.2-2.3 2.3-2.3 5.3 0 10.6-.1 15.8 0 3.5.1 7 .4 10.2 1.9 2.6 1.2 4.7 3 6.1 5.7 1.8 3.5 2.3 7.3 2.7 11.1.9 7.3 1 14.6 1 21.9 0 7.2.2 14.5-.1 21.7-.2 5.9-.4 11.8-1.9 17.5-.9 3.1-2.2 6.1-4.7 8.4-2.9 2.6-6.5 3.6-10.3 3.6-6.3.1-12.6 0-18.8 0-2.1 0-2.3-.2-2.3-2.3V46.4zm16.1.5v30.7c0 .4-.1.9.1 1.3.1.4.4.9.7 1 1.7.7 4.2 0 5-1.6.4-.9.6-1.9.6-2.9.1-6.5.3-13.1.3-19.7 0-8-.2-16.1-.3-24.1v-10c0-1.3-.1-2.6-.2-3.8-.3-2.7-2.4-4.3-5.1-3.8-.4.1-.8.6-1.1 1-.2.4-.1.9-.1 1.3.1 10.3.1 20.5.1 30.6zM113.3.5h9.7c1.7 0 2.2.4 2.3 2.2.5 5.6.9 11.2 1.4 16.8.7 7.4 1.4 14.7 2.1 22.1.6 6.9 1.3 13.8 1.9 20.6.6 6.8 1.2 13.6 1.9 20.4.2 2.5.5 5.1.8 7.6.2 1.7-.1 2-1.8 2h-12c-1.7 0-2.2-.5-2.2-2.1-.3-6.5-.7-13.1-1-19.6 0-.8-.4-1.2-1.2-1.2h-5c-.8 0-1.1.5-1.2 1.3-.2 3-.4 6-.7 9-.3 3.6-.5 7.2-.8 10.7-.2 1.9-.3 2-2.2 2H93.5c-1.5 0-1.9-.4-1.7-1.9 1-9.2 2-18.3 3-27.5.9-8.7 1.7-17.5 2.6-26.2.6-5.5 1.2-11 1.9-16.4.7-6 1.3-12.1 2-18.1.1-1.2.9-1.6 2-1.6 3.3-.1 6.7-.1 10-.1zm-.3 16.2h-.3c0 .3-.1.6-.1.9-.3 4.6-.6 9.2-.9 13.9-.2 3.1-.4 6.1-.7 9.2-.4 5-.9 9.9-1.4 14.9-.1 1 .3 1.6 1.4 1.6h2.6c1.8 0 2-.3 1.9-2-.4-5.2-.8-10.4-1.1-15.5L113.2 19c0-.8-.1-1.5-.2-2.3zM480.1 90.4c-.4-3.9-.8-7.7-1.2-11.6-.6-5.7-1.3-11.4-1.9-17-1-9.8-2-19.6-3-29.5-.7-7-1.5-14.1-2.3-21.1-.3-2.9-.6-5.9-.9-8.8-.1-1.4-.6-1.9-2-1.9h-19c-1.4 0-1.9.5-2 1.9-.3 2.9-.6 5.9-.9 8.8-.8 7-1.5 14.1-2.3 21.1-1 9.8-2 19.6-3 29.5-.6 5.7-1.3 11.4-1.9 17-.4 3.8-.9 7.7-1.2 11.6-.1 1.6.1 1.9 1.7 1.9h12c1.3 0 1.9-.5 2-1.7.4-4.9.8-9.7 1.1-14.6.1-1.8.1-3.5.2-5.3 0-.7.1-1.3 1-1.4h5.8c.9 0 1 .7 1 1.4 0 1.8 0 3.5.2 5.3.3 4.9.7 9.7 1.1 14.6.1 1.2.7 1.7 2 1.7h12c1.3 0 1.6-.3 1.5-1.9zm-19.4-33.1h-2.9c-1.2 0-1.6-.4-1.5-1.6.2-3.2.5-6.4.8-9.6.2-3.2.5-6.5.7-9.7.3-4.7 1.4-16.2 1.5-17.3.1 1.1 1.2 12.6 1.5 17.3.2 3.2.5 6.5.7 9.7s.5 6.4.8 9.6c0 1.1-.4 1.5-1.6 1.6zM340.3 46.3V2.7c0-2 .2-2.2 2.2-2.2h28.6c1.7 0 2.1.4 2.1 2.1v11.3c0 1.5-.5 2-2 2h-12.7c-1.9 0-2.1.2-2.1 2.1v19c0 1.5.2 1.7 1.7 1.7h11.6c1.6 0 1.9.3 1.9 1.9v10.9c0 1.5-.3 1.8-1.8 1.8h-11.5c-1.7 0-1.8.1-1.8 1.7v20.3c0 1.8.2 2 2 2h12.8c1.9 0 2.2.2 2.2 2.1v10.8c0 1.8-.3 2.1-2.1 2.1h-28.8c-2 0-2.2-.2-2.2-2.2-.1-14.6-.1-29.2-.1-43.8zM436.1 46.5v43.7c0 1.7-.4 2.1-2 2.1h-13.3c-1.6 0-2-.4-2-2V2.6c0-1.6.4-2 2-2h13.3c1.7 0 2 .4 2 2.1v43.8z"/></g><path class="st1" d="M266.8 59.3H235c-1.9 0-3.4-1.5-3.4-3.4V3.8c0-1.9 1.5-3.4 3.4-3.4h31.8c1.9 0 3.4 1.5 3.4 3.4v52.1c0 1.8-1.5 3.4-3.4 3.4zM266.8 92.5H235c-1.9 0-3.4-1.5-3.4-3.4V69.6c0-1.9 1.5-3.4 3.4-3.4h31.8c1.9 0 3.4 1.5 3.4 3.4V89c0 1.9-1.5 3.5-3.4 3.5z"/></svg>